<svg width="40" height="40" viewBox="0 0 40 40" fill="none" xmlns="http://www.w3.org/2000/svg">
<rect x="0.5" y="0.5" width="39" height="39" stroke="black"/>
<rect x="0.5" y="0.5" width="39" height="39" stroke="black" stroke-opacity="0.2"/>
<path d="M28.3333 11.6667H6.66665C5.78259 11.6667 4.93474 12.0179 4.30962 12.643C3.6845 13.2681 3.33331 14.116 3.33331 15V25C3.33331 25.8841 3.6845 26.7319 4.30962 27.357C4.93474 27.9822 5.78259 28.3334 6.66665 28.3334H28.3333C29.2174 28.3334 30.0652 27.9822 30.6903 27.357C31.3155 26.7319 31.6666 25.8841 31.6666 25V15C31.6666 14.116 31.3155 13.2681 30.6903 12.643C30.0652 12.0179 29.2174 11.6667 28.3333 11.6667ZM28.3333 25H6.66665V15H28.3333V25ZM35 16.6667C34.558 16.6667 34.134 16.8423 33.8215 17.1548C33.5089 17.4674 33.3333 17.8913 33.3333 18.3334V21.6667C33.3333 22.1087 33.5089 22.5326 33.8215 22.8452C34.134 23.1578 34.558 23.3334 35 23.3334C35.442 23.3334 35.8659 23.1578 36.1785 22.8452C36.4911 22.5326 36.6666 22.1087 36.6666 21.6667V18.3334C36.6666 17.8913 36.4911 17.4674 36.1785 17.1548C35.8659 16.8423 35.442 16.6667 35 16.6667Z" fill="white"/>
</svg>
