<svg width="32" height="32" viewBox="0 0 32 32" fill="none" xmlns="http://www.w3.org/2000/svg">
<path d="M28.5067 7.68001C28.4611 7.50976 28.3823 7.35021 28.2748 7.21061C28.1672 7.071 28.033 6.95411 27.88 6.86668L20.9467 2.86668C20.7953 2.77797 20.6279 2.72001 20.4541 2.69613C20.2802 2.67224 20.1034 2.6829 19.9337 2.72749C19.764 2.77209 19.6048 2.84974 19.4651 2.95599C19.3255 3.06224 19.2082 3.19501 19.12 3.34668L16 8.76001L12.88 3.34668C12.7918 3.19501 12.6745 3.06224 12.5349 2.95599C12.3952 2.84974 12.236 2.77209 12.0663 2.72749C11.8966 2.6829 11.7198 2.67224 11.546 2.69613C11.3721 2.72001 11.2047 2.77797 11.0533 2.86668L4.12 6.86668C3.96698 6.95411 3.83281 7.071 3.72524 7.21061C3.61768 7.35021 3.53886 7.50976 3.49334 7.68001C3.40509 8.01794 3.45297 8.37701 3.62667 8.68001L8.96 17.7867C8.365 18.8767 8.03606 20.092 8 21.3333C7.99683 22.5444 8.26865 23.7404 8.79496 24.8311C9.32127 25.9218 10.0883 26.8787 11.0383 27.6298C11.9883 28.3809 13.0965 28.9065 14.2792 29.167C15.4619 29.4275 16.6883 29.4161 17.8659 29.1337C19.0436 28.8512 20.1417 28.305 21.0776 27.5364C22.0134 26.7677 22.7625 25.7966 23.2685 24.6963C23.7744 23.596 24.0239 22.3952 23.9982 21.1844C23.9725 19.9737 23.6722 18.7845 23.12 17.7067L28.32 8.69335C28.4168 8.54527 28.4831 8.37941 28.5152 8.20544C28.5472 8.03147 28.5443 7.85286 28.5067 7.68001ZM6.66667 8.50668L11.28 5.84001L15.5733 13.3333C13.7432 13.4464 12.0091 14.191 10.6667 15.44L6.66667 8.50668ZM16 26.6667C14.5855 26.6667 13.229 26.1048 12.2288 25.1046C11.2286 24.1044 10.6667 22.7478 10.6667 21.3333C10.6667 19.9189 11.2286 18.5623 12.2288 17.5621C13.229 16.5619 14.5855 16 16 16C17.4145 16 18.771 16.5619 19.7712 17.5621C20.7714 18.5623 21.3333 19.9189 21.3333 21.3333C21.3333 22.7478 20.7714 24.1044 19.7712 25.1046C18.771 26.1048 17.4145 26.6667 16 26.6667ZM21.3333 15.4C20.6094 14.7388 19.7683 14.2188 18.8533 13.8667L17.5467 11.4267L20.7733 5.84001L25.3867 8.50668L21.3333 15.4Z" fill="white"/>
</svg>
